<?xml version="1.0" standalone="no"?><!DOCTYPE svg PUBLIC "-//W3C//DTD SVG 1.1//EN" "http://www.w3.org/Graphics/SVG/1.1/DTD/svg11.dtd"><svg t="1637485556784" class="icon" viewBox="0 0 1024 1024" version="1.1" xmlns="http://www.w3.org/2000/svg" p-id="2213" width="64" height="64" xmlns:xlink="http://www.w3.org/1999/xlink"><defs><style type="text/css"></style></defs><path d="M708.87499973 146.37500027H315.12500027a112.49999973 112.49999973 0 0 0-112.50000054 112.49999973v506.25a112.49999973 112.49999973 0 0 0 112.50000054 112.49999973h309.37499946a196.87499973 196.87499973 0 0 0 196.87500054-196.87499973V258.875a112.49999973 112.49999973 0 0 0-112.50000054-112.49999973zM258.875 765.125V258.875a56.25000027 56.25000027 0 0 1 56.25000027-56.25000027h393.74999946a56.25000027 56.25000027 0 0 1 56.25000027 56.25000027v393.75000027h-140.62500027a28.12499973 28.12499973 0 0 0-28.12499973 28.12499973v140.62500027H315.12500027a56.25000027 56.25000027 0 0 1-56.25000027-56.25000027z m393.75000027 53.43749973V708.87499973h109.6875a140.62500027 140.62500027 0 0 1-109.6875 109.6875z" fill="#1890FF" p-id="2214"></path><path d="M399.50000027 399.50000027h224.99999946a28.12499973 28.12499973 0 0 0 0-56.25000027h-224.99999946a28.12499973 28.12499973 0 0 0 0 56.25000027z m224.99999946 168.75a28.12499973 28.12499973 0 0 0 0-56.25000027h-224.99999946a28.12499973 28.12499973 0 0 0 0 56.25000027z" fill="#1890FF" p-id="2215"></path></svg>