<?xml version="1.0" standalone="no"?><!DOCTYPE svg PUBLIC "-//W3C//DTD SVG 1.1//EN" "http://www.w3.org/Graphics/SVG/1.1/DTD/svg11.dtd"><svg t="1637485594519" class="icon" viewBox="0 0 1024 1024" version="1.1" xmlns="http://www.w3.org/2000/svg" p-id="2452" width="64" height="64" xmlns:xlink="http://www.w3.org/1999/xlink"><defs><style type="text/css"></style></defs><path d="M506.7265625 847.91796875a29.00390625 28.91601563 0 1 0 58.00781251 0 29.00390625 28.91601563 0 1 0-58.00781251 0Z" fill="#f4ea2a" p-id="2453"></path><path d="M821.375 403.63085937v-3.86718749c0-62.13867188-50.36132813-112.50000001-112.5-112.5H511.82421875l-72.50976563-97.47070313c-6.50390625-11.33789063-15.8203125-14.23828125-23.99414062-14.0625l-0.08789062-0.08789062H230.83789062c-62.13867188 0-112.50000001 50.36132813-112.49999999 112.5v476.45507812c0 62.13867188 50.36132813 112.50000001 112.5 112.5H419.71484375v-0.3515625c15.99609375 0 29.00390625-12.91992188 29.00390626-28.91601563s-13.0078125-28.91601563-29.00390626-28.91601562c-0.87890625 0-1.84570313 0.08789063-2.72460937 0.08789063h-159.08203125c-31.02539063 0-56.25-25.22460938-56.25-56.25 0-4.83398438 0.61523438-9.58007813 1.7578125-14.0625L267.6640625 500.48632812l0.17578124-0.08789062c5.88867188-24.69726563 28.03710938-43.06640625 54.58007814-43.15429688l0.17578125-0.08789063h467.75390624c1.14257813-0.08789063 2.19726563-0.08789063 3.33984376-0.08789062 31.02539063 0 56.25 25.22460938 56.25 56.25 0 5.88867188-0.96679687 11.68945313-2.63671875 17.05078125v0.08789064L783.58203125 776.375c-0.08789063 0.52734375-0.26367188 0.96679687-0.3515625 1.49414063l-1.31835938 5.09765624-0.43945312 0.3515625c-1.31835938 3.42773438-2.98828125 6.59179689-4.83398438 9.66796876h-1.14257812c-2.28515625 4.13085938-5.09765625 7.99804688-8.34960938 11.33789062-10.01953125 9.31640625-23.46679689 15.02929689-38.14453124 15.02929688-1.14257813 0-2.28515625 0-3.33984375-0.08789064h-71.01562501c-0.87890625-0.08789063-1.84570313-0.08789063-2.72460937-0.08789062-15.99609375 0-29.00390625 12.91992188-29.00390625 28.91601564s13.0078125 28.91601563 29.00390625 28.91601561v0.17578125H732.60546875l0.43945313-0.3515625c51.94335938-0.17578125 95.53710938-35.5078125 108.28124999-83.49609374l0.17578125-0.17578125 59.58984375-250.92773438c2.54882813-9.4921875 3.95507813-19.42382813 3.95507813-29.70703125-0.08789063-52.29492188-35.59570313-96.24023438-83.671875-108.89648438z m-502.29492188-4.30664062c-54.4921875 0-99.93164063 38.84765625-110.30273437 90.26367188l-0.43945313 0.35156249-33.3984375 140.88867188V287.87890625c0-31.02539063 25.22460938-56.25 56.25-56.25H398.62109375l72.68554688 97.82226563c5.80078125 10.01953125 16.875 15.11718749 27.68554687 13.88671874h209.61914063c30.9375 0 56.07421874 25.04882813 56.24999999 55.98632813H319.08007812z" fill="#f4ea2a" p-id="2454"></path></svg>