<?xml version="1.0" standalone="no"?><!DOCTYPE svg PUBLIC "-//W3C//DTD SVG 1.1//EN" "http://www.w3.org/Graphics/SVG/1.1/DTD/svg11.dtd"><svg t="1637485812719" class="icon" viewBox="0 0 1024 1024" version="1.1" xmlns="http://www.w3.org/2000/svg" p-id="2424" xmlns:xlink="http://www.w3.org/1999/xlink" width="64" height="64"><defs><style type="text/css"></style></defs><path d="M512 877.625c-7.2 0-14.4-2.75625-19.884375-8.240625l-84.375-84.375c-10.996875-10.996875-10.996875-28.771875 0-39.76875s28.771875-10.996875 39.76875 0L512 809.73125l64.490625-64.490625C581.75 739.953125 588.89375 737 596.375 737l196.875 0c15.525 0 28.125-12.6 28.125-28.125L821.375 258.875c0-15.496875-12.6-28.125-28.125-28.125L230.75 230.75C215.253125 230.75 202.625 243.378125 202.625 258.875l0 450c0 15.525 12.628125 28.125 28.125 28.125l84.375 0c15.525 0 28.125 12.571875 28.125 28.125s-12.6 28.125-28.125 28.125L230.75 793.25c-46.51875 0-84.375-37.85625-84.375-84.375L146.375 258.875c0-46.51875 37.85625-84.375 84.375-84.375l562.5 0c46.51875 0 84.375 37.85625 84.375 84.375l0 450c0 46.51875-37.85625 84.375-84.375 84.375l-185.23125 0-76.134375 76.134375C526.4 874.86875 519.2 877.625 512 877.625z" p-id="2425" fill="#1890FF"></path><path d="M357.3125 512C334.053125 512 315.125 493.071875 315.125 469.8125S334.053125 427.625 357.3125 427.625s42.1875 18.928125 42.1875 42.1875S380.571875 512 357.3125 512z" p-id="2426" fill="#1890FF"></path><path d="M526.0625 512c-23.259375 0-42.1875-18.928125-42.1875-42.1875s18.928125-42.1875 42.1875-42.1875 42.1875 18.928125 42.1875 42.1875S549.321875 512 526.0625 512z" p-id="2427" fill="#1890FF"></path><path d="M694.8125 512c-23.259375 0-42.1875-18.928125-42.1875-42.1875s18.928125-42.1875 42.1875-42.1875 42.1875 18.928125 42.1875 42.1875S718.071875 512 694.8125 512z" p-id="2428" fill="#1890FF"></path></svg>